<svg xmlns="http://www.w3.org/2000/svg" xmlns:xlink="http://www.w3.org/1999/xlink" viewBox="307.26 215.93 2105.27 1129.28"><defs><linearGradient id="gradient_0" gradientUnits="userSpaceOnUse" x1="2406.8167" y1="803.87762" x2="1831.5316" y2="669.80573"><stop offset="0" stop-color="#B900F8"/><stop offset="1" stop-color="#864BF7"/></linearGradient></defs><path fill="url(#gradient_0)" d="M1525.53 260.269C1533.81 256.273 1552.56 250.322 1561.35 247.591C1636.01 224.697 1713.9 214.09 1791.97 216.185C1803.06 216.531 1820.69 216.766 1831.26 218.427C2016.62 237.297 2172.37 313.222 2291.2 458.782C2359.85 542.877 2412.22 662.627 2412.46 772.151C2412.48 781.249 2412.78 790.595 2411.91 799.651C2406.97 850.927 2390.19 901.842 2348.66 935.212C2338.44 943.342 2327.11 949.962 2315.01 954.868C2311.36 956.361 2290.88 963.742 2290.45 965.973C2286.36 987.137 2281.8 1010.42 2273.27 1030.5C2236.52 1116.25 2155.92 1175.13 2063.05 1184.06C2054.83 1184.92 1998.77 1183.83 1998 1184.66C2004.67 1200.97 2012.5 1215.61 2020.38 1231.32C2024.06 1238.65 2027.35 1247.45 2031.23 1254.35C2036.84 1269.74 2040.5 1284.77 2035.7 1300.83C2035.21 1302.46 2035.2 1303.1 2035.16 1304.74C2034.54 1306.35 2033.88 1308.03 2033.15 1309.59C2026.08 1324.55 2013.33 1336.07 1997.72 1341.59C1925.71 1366.48 1884.01 1256.18 1843.89 1214.94C1841.84 1212.83 1838.22 1208.91 1837.29 1206.18C1841.16 1196.59 1829.55 1190.01 1824.66 1184.79C1823.77 1183.84 1825.78 1182 1821.83 1177.75C1818.93 1177.48 1817.49 1177.63 1815.08 1176C1815.19 1174.05 1815.19 1174.03 1814.8 1172.12C1804.31 1162.62 1795.2 1153.65 1782.91 1146.57C1779.48 1144.59 1778.02 1137.79 1772.34 1135.67L1768.85 1137.74L1766.65 1136.07L1767.92 1134.13L1766.72 1132.27L1758.48 1130.55C1753.13 1122.18 1747.25 1121.78 1738.05 1118.09L1738.69 1118.21C1733.04 1115.98 1729.7 1114.64 1723.77 1113.35L1722.51 1113.08C1723.13 1113.04 1734.34 1110.98 1734.63 1110.84C1736.28 1107.99 1735.98 1109.44 1735.94 1106.44C1730.96 1103.78 1730.93 1103.98 1730.24 1098.64L1731.23 1099.49L1730.55 1101.54L1731.99 1102.66L1733.83 1102.36C1735.08 1092.96 1738.98 1096.08 1740.01 1089.61L1736.95 1086.7L1737.84 1086.23C1739.3 1087.46 1739.21 1087.51 1741.01 1088.07L1741.13 1086.45L1738.52 1083.6L1739.36 1082.75C1742.62 1084.58 1742.17 1084.28 1743.21 1088.07L1744.22 1087.59L1744.36 1081.78C1746.04 1082.07 1747.28 1082.47 1748.91 1082.95L1750.16 1081.99L1750.36 1078.89L1749.47 1078.06L1746.55 1078.44C1746.57 1076.23 1746.83 1075.11 1745.55 1073.33L1744.05 1073.96L1743.09 1077.59L1741.95 1077.14C1744.33 1066.06 1739.99 1072.71 1739.51 1062.59C1745.38 1065.23 1742.61 1071.75 1749.69 1074.19L1752.01 1072.89C1748.58 1064.62 1749.21 1066.52 1750 1058.87C1750.84 1050.77 1752.04 1056.29 1753.55 1050.99C1751.31 1050.84 1752.36 1051.16 1750.38 1049.82C1750.61 1046.19 1752.27 1045.74 1755.28 1042.35C1753.92 1040.74 1753.97 1040.82 1753.17 1038.87C1751.23 1040.75 1750.03 1043.39 1748.7 1045.73C1745.51 1045.17 1744.3 1042.46 1743.14 1039.47C1739.51 1039.46 1736.38 1039.41 1732.73 1039.2C1773.58 1024.64 1807.69 1010.11 1847.34 993.513C1884.66 976.027 1925.65 958.722 1964.22 944.356C1976.4 939.823 1995.06 933.213 2007.23 930.46C2052.74 912.053 2122.11 908.425 2170.62 912.23C2217.92 915.939 2281.7 931.505 2321.2 895.836C2371.52 850.391 2371.4 767.926 2358.41 706.541C2315.77 497.99 2140.06 337.663 1938.27 284.106C1889.14 271.019 1845.85 265.76 1795.53 262.238C1777.78 262.387 1758.73 261.717 1741.2 262.475C1681.5 265.057 1627.97 275.158 1570.86 292.234C1571.35 290.282 1571.59 290.165 1571.06 288.283L1568.49 288.818C1570.06 283.416 1575.45 282.957 1574.77 279.582C1573.2 271.784 1565.83 270.587 1569.58 260.453C1571.4 255.532 1563.55 253.837 1558.7 253.79L1559.21 253.561C1551.63 252.369 1537.17 260.962 1525.53 260.269ZM1757.3 1080.41C1789.13 1098.07 1811.87 1112.28 1838.42 1137.97C1884.52 1182.57 1915.84 1237.07 1956.63 1285.65C1965.77 1296.54 1975.98 1300.67 1988.63 1292.1C1989.74 1270.56 1976.19 1249.38 1966.65 1230.35C1959.72 1216.65 1953.13 1202.79 1946.88 1188.76C1941.03 1175.77 1929.21 1151.79 1940.58 1139.01C1951.99 1124.39 1979.46 1131.92 1995.52 1134.05C2003.81 1135.1 2012.14 1135.86 2020.49 1136.36C2080.14 1140.23 2131.8 1124.81 2176.91 1085.03C2205.01 1060.33 2225.67 1028.27 2236.54 992.458C2247.3 956.25 2238.55 969.072 2210.83 964.992C2171.12 959.147 2131.57 956.022 2091.51 960.609C2081.71 961.731 2072.13 963.81 2062.29 964.996C1983.26 981.157 1920.11 1012.81 1846.86 1044.69C1821.3 1055.81 1783.86 1072.65 1757.3 1080.41Z"/><path fill="#8E3DF3" d="M2007.23 930.46L2004.75 934.766L2005.78 936.216C2011.5 935.143 2007.03 932.787 2013.79 932.805C2028.55 932.845 2043.17 924.088 2058.69 922.232C2068.09 921.107 2063.43 926.626 2072.61 922.422C2070.82 920.833 2068.18 920.863 2065.46 920.393C2072.75 919.789 2080.06 919.004 2087.36 918.42C2090.48 918.169 2093.11 916.982 2096.42 916.932C2097.65 922.963 2103.25 925.403 2109 925.798C2110.1 927.577 2110.34 928.589 2110.98 930.535C2116.63 930.094 2121.52 924.556 2127.01 931.232C2126.95 933.793 2126.33 934.699 2125.29 937.001C2126.36 939.652 2125.46 938.708 2128.09 939.905L2130.46 938.151C2133.05 939.28 2132.24 938.915 2134.16 941.407L2133.89 942.735C2130.39 943.048 2125.2 942.355 2123.41 943.721C2124.26 946.328 2124.94 947.01 2126.53 949.174C2122.86 955.786 2103.23 953.586 2096.55 953.627C2096.43 955.136 2096.45 954.429 2096.45 955.749C2080.48 955.982 2059.9 961.32 2041.65 962.751L2040.85 963.594L2041.96 964.966C2048.33 965.121 2056.87 964.132 2062.29 964.996C1983.26 981.157 1920.11 1012.81 1846.86 1044.69C1821.3 1055.81 1783.86 1072.65 1757.3 1080.41C1789.13 1098.07 1811.87 1112.28 1838.42 1137.97C1884.52 1182.57 1915.84 1237.07 1956.63 1285.65C1965.77 1296.54 1975.98 1300.67 1988.63 1292.1C1989.74 1270.56 1976.19 1249.38 1966.65 1230.35C1959.72 1216.65 1953.13 1202.79 1946.88 1188.76C1941.03 1175.77 1929.21 1151.79 1940.58 1139.01C1940.45 1142.03 1939.62 1146.3 1941.06 1148.21L1941.91 1147.16C1945.27 1143.1 1953.96 1134.03 1959.14 1134.1C1964.14 1134.16 1984.86 1136.38 1988.9 1138.36L1984.46 1140.62C1987.51 1143.43 2005 1138.03 2011.16 1141.83C2013.44 1141.01 2014.08 1141.19 2016.52 1141.06L2021.84 1141.99C2022.9 1143.86 2022.84 1144.51 2023.17 1146.62C2027.84 1149.52 2042.08 1148.05 2050.98 1151.48L2054.06 1149.86C2055.72 1150.54 2056.55 1150.41 2056.76 1151.94C2058.16 1162.34 2055.63 1166.36 2059.21 1176.82C2062.74 1177.69 2062.92 1176.58 2064.48 1178.49C2058.78 1182.62 2003.05 1178.49 1994.19 1178.5C1993.84 1178.5 1990.95 1186.06 1990.54 1187.2C1991.02 1187.88 1993.54 1190.1 1993.82 1189.07C1990.82 1200.03 1996.96 1197.97 1998 1201.32C2003.44 1218.86 2016.91 1235.16 2021.65 1252.54C2022.34 1255.03 2021.5 1254.83 2022.73 1257.74L2023.86 1258.45L2025.64 1256.43C2027.52 1255.23 2029.1 1254.95 2031.23 1254.35C2036.84 1269.74 2040.5 1284.77 2035.7 1300.83C2035.21 1302.46 2035.2 1303.1 2035.16 1304.74C2034.54 1306.35 2033.88 1308.03 2033.15 1309.59C2026.08 1324.55 2013.33 1336.07 1997.72 1341.59C1925.71 1366.48 1884.01 1256.18 1843.89 1214.94C1841.84 1212.83 1838.22 1208.91 1837.29 1206.18C1841.16 1196.59 1829.55 1190.01 1824.66 1184.79C1823.77 1183.84 1825.78 1182 1821.83 1177.75C1818.93 1177.48 1817.49 1177.63 1815.08 1176C1815.19 1174.05 1815.19 1174.03 1814.8 1172.12C1804.31 1162.62 1795.2 1153.65 1782.91 1146.57C1779.48 1144.59 1778.02 1137.79 1772.34 1135.67L1768.85 1137.74L1766.65 1136.07L1767.92 1134.13L1766.72 1132.27L1758.48 1130.55C1753.13 1122.18 1747.25 1121.78 1738.05 1118.09L1738.69 1118.21C1733.04 1115.98 1729.7 1114.64 1723.77 1113.35L1722.51 1113.08C1723.13 1113.04 1734.34 1110.98 1734.63 1110.84C1736.28 1107.99 1735.98 1109.44 1735.94 1106.44C1730.96 1103.78 1730.93 1103.98 1730.24 1098.64L1731.23 1099.49L1730.55 1101.54L1731.99 1102.66L1733.83 1102.36C1735.08 1092.96 1738.98 1096.08 1740.01 1089.61L1736.95 1086.7L1737.84 1086.23C1739.3 1087.46 1739.21 1087.51 1741.01 1088.07L1741.13 1086.45L1738.52 1083.6L1739.36 1082.75C1742.62 1084.58 1742.17 1084.28 1743.21 1088.07L1744.22 1087.59L1744.36 1081.78C1746.04 1082.07 1747.28 1082.47 1748.91 1082.95L1750.16 1081.99L1750.36 1078.89L1749.47 1078.06L1746.55 1078.44C1746.57 1076.23 1746.83 1075.11 1745.55 1073.33L1744.05 1073.96L1743.09 1077.59L1741.95 1077.14C1744.33 1066.06 1739.99 1072.71 1739.51 1062.59C1745.38 1065.23 1742.61 1071.75 1749.69 1074.19L1752.01 1072.89C1748.58 1064.62 1749.21 1066.52 1750 1058.87C1750.84 1050.77 1752.04 1056.29 1753.55 1050.99C1751.31 1050.84 1752.36 1051.16 1750.38 1049.82C1750.61 1046.19 1752.27 1045.74 1755.28 1042.35C1753.92 1040.74 1753.97 1040.82 1753.17 1038.87C1751.23 1040.75 1750.03 1043.39 1748.7 1045.73C1745.51 1045.17 1744.3 1042.46 1743.14 1039.47C1739.51 1039.46 1736.38 1039.41 1732.73 1039.2C1773.58 1024.64 1807.69 1010.11 1847.34 993.513C1884.66 976.027 1925.65 958.722 1964.22 944.356C1976.4 939.823 1995.06 933.213 2007.23 930.46Z"/><path fill="#6C76F4" d="M1847.34 993.513C1845.98 998.655 1839.63 1001.92 1834.06 1007.35C1828.02 1009.06 1821.88 1008.97 1817.17 1011.53L1816.59 1012.83L1818.44 1014.54C1812.43 1016.82 1809.03 1015.2 1804.24 1016.75C1795.35 1019.64 1785.84 1025.85 1777.39 1029.47C1770.15 1032.58 1759.85 1032.98 1753.17 1038.87C1751.23 1040.75 1750.03 1043.39 1748.7 1045.73C1745.51 1045.17 1744.3 1042.46 1743.14 1039.47C1739.51 1039.46 1736.38 1039.41 1732.73 1039.2C1773.58 1024.64 1807.69 1010.11 1847.34 993.513Z"/><path fill="#A321F5" d="M2025.64 1256.43C2027.52 1255.23 2029.1 1254.95 2031.23 1254.35C2036.84 1269.74 2040.5 1284.77 2035.7 1300.83C2035.21 1302.46 2035.2 1303.1 2035.16 1304.74C2029.6 1305.99 2030.88 1308.38 2026.12 1310.75L2025.83 1308.21L2027.58 1307.08C2029.5 1303.39 2030.52 1300.27 2029.56 1296.21C2027.44 1294.45 2027.26 1294.42 2024.61 1293.4L2023.94 1293.15C2022.92 1290.05 2023.1 1291.65 2023.78 1288.16C2027.87 1285.38 2025.87 1289 2031.63 1286.35L2030.54 1287.32L2031.69 1285.83C2031.68 1283 2031.5 1282.88 2030.6 1280.3C2026.69 1279.3 2028.37 1282.25 2024.93 1282.18C2025.03 1277.02 2030.46 1276.3 2030.99 1269.56L2029.46 1268.41L2030.44 1267.6C2028.92 1269.48 2028.79 1270.44 2027.06 1270.63C2026.27 1262.89 2028.96 1265.47 2025.64 1256.43Z"/><path fill="#A321F5" d="M2011.16 1141.83C2013.44 1141.01 2014.08 1141.19 2016.52 1141.06C2017.39 1143.45 2017.25 1142.76 2019.93 1144.48C2017.78 1145.95 2016.93 1145.73 2014.33 1145.78C2013.01 1144.28 2013.17 1144.27 2012.81 1142.26L2011.16 1141.83Z"/><path fill="#6C76F4" d="M1525.53 260.269C1533.81 256.273 1552.56 250.322 1561.35 247.591C1636.01 224.697 1713.9 214.09 1791.97 216.185C1803.06 216.531 1820.69 216.766 1831.26 218.427L1826.14 219.451L1825.61 220.967C1827.82 223.759 1834.04 224.668 1837.43 224.783C1856.1 225.415 1874.95 229.406 1892.99 231.154L1885.74 232.515L1886.57 233.769C1898.52 234.518 1909.33 234.412 1920.62 238.945C1923.76 240.205 1928.65 239.493 1931.82 239.557C1933.84 239.597 1930.69 241.4 1935.52 241.793C1939.33 242.103 1940.84 240.411 1943.79 241.577C1940.9 244.434 1935.79 243.4 1931.7 243.158L1930.75 244.177L1933.17 260.438C1935.82 259.189 1935.64 258.35 1937.55 255.37C1937 252.432 1936.61 249.979 1936.25 247.012L1937.03 246.564C1940.13 250.13 1939.23 260.107 1939.45 265.632C1935.65 269.838 1931.74 264.879 1929.49 271.36L1930.03 274.158L1929.07 275.491C1919.76 276.574 1899.55 268.346 1890.17 267.356C1864.5 264.649 1838.7 260.151 1812.88 259.457C1807.23 259.305 1804.08 262.349 1795.53 262.238C1777.78 262.387 1758.73 261.717 1741.2 262.475C1681.5 265.057 1627.97 275.158 1570.86 292.234C1571.35 290.282 1571.59 290.165 1571.06 288.283L1568.49 288.818C1570.06 283.416 1575.45 282.957 1574.77 279.582C1573.2 271.784 1565.83 270.587 1569.58 260.453C1571.4 255.532 1563.55 253.837 1558.7 253.79L1559.21 253.561C1551.63 252.369 1537.17 260.962 1525.53 260.269Z"/><defs><linearGradient id="gradient_1" gradientUnits="userSpaceOnUse" x1="1819.6403" y1="760.87396" x2="1299.7902" y2="660.89929"><stop offset="0" stop-color="#7B62F3"/><stop offset="1" stop-color="#0AE4F6"/></linearGradient></defs><path fill="url(#gradient_1)" d="M1799.43 409.111C1803.26 398.928 1810.82 370.353 1816.11 364.917L1818.41 364.219C1822.34 366.343 1822.92 370.529 1824.19 374.793L1835.75 414.507C1836.98 418.718 1839.9 427.096 1840.71 430.818C1843.49 438.917 1850.46 457.761 1851.77 465.15C1857.35 476.381 1865.8 509.537 1871.2 524.224L2005.74 436.713C2015.16 430.573 2060.95 397.02 2067.93 399.238C2068.49 403.222 2046.38 438.913 2042.45 445.951L1971.57 575.207C1969.47 579.127 1952.06 607.252 1956.82 609.361C1970.84 615.581 1986.21 620.961 2000.62 626.433C2028.73 637.045 2056.71 647.983 2084.56 659.243C2093.99 662.377 2100.18 664.396 2109.14 668.691C2095.62 674.537 2077.12 680.061 2062.73 684.051C2050.63 688.118 1947.93 721.186 1945.7 723.542C1946.05 731.518 1954.78 749.174 1958.19 757.625L1994.18 845.352C1997.16 852.598 2000.51 859.811 2002.92 867.248C2004.24 871.303 2010.43 878.634 2007.84 882.251C1998 882.254 1964.74 860.302 1953.53 853.574C1932.13 840.925 1910.56 828.582 1888.81 816.548C1882.05 812.734 1858.18 796.684 1852.23 800.267C1838.79 826.139 1825.09 851.871 1811.12 877.459C1807.94 883.361 1797.75 903.884 1794.88 907.532C1792.28 913.808 1785.93 927.204 1781.55 932.166C1780.82 936.534 1776.8 945.525 1773.09 948.477C1764.89 949.205 1765.61 930.604 1765.32 924.806C1761.26 913.152 1761.35 897.645 1759.15 885.384C1751.82 844.63 1747.76 806.025 1737.64 765.718C1646.09 819.001 1571.37 899.334 1470.45 934.987C1469.44 935.344 1466.61 936.699 1466.69 937.944C1467.92 956.445 1474.34 977.603 1484.29 993.002C1505.19 1025.66 1538.29 1048.59 1576.21 1056.68C1631.97 1068.39 1680.13 1056.99 1732.73 1039.2C1736.38 1039.41 1739.51 1039.46 1743.14 1039.47C1744.3 1042.46 1745.51 1045.17 1748.7 1045.73C1750.03 1043.39 1751.23 1040.75 1753.17 1038.87C1753.97 1040.82 1753.92 1040.74 1755.28 1042.35C1752.27 1045.74 1750.61 1046.19 1750.38 1049.82C1752.36 1051.16 1751.31 1050.84 1753.55 1050.99C1752.04 1056.29 1750.84 1050.77 1750 1058.87C1749.21 1066.52 1748.58 1064.62 1752.01 1072.89L1749.69 1074.19C1742.61 1071.75 1745.38 1065.23 1739.51 1062.59C1739.99 1072.71 1744.33 1066.06 1741.95 1077.14L1743.09 1077.59L1744.05 1073.96L1745.55 1073.33C1746.83 1075.11 1746.57 1076.23 1746.55 1078.44L1749.47 1078.06L1750.36 1078.89L1750.16 1081.99L1748.91 1082.95C1747.28 1082.47 1746.04 1082.07 1744.36 1081.78L1744.22 1087.59L1743.21 1088.07C1742.17 1084.28 1742.62 1084.58 1739.36 1082.75L1738.52 1083.6L1741.13 1086.45L1741.01 1088.07C1739.21 1087.51 1739.3 1087.46 1737.84 1086.23L1736.95 1086.7L1740.01 1089.61C1738.98 1096.08 1735.08 1092.96 1733.83 1102.36L1731.99 1102.66L1730.55 1101.54L1731.23 1099.49L1730.24 1098.64C1730.93 1103.98 1730.96 1103.78 1735.94 1106.44C1735.98 1109.44 1736.28 1107.99 1734.63 1110.84C1734.34 1110.98 1723.13 1113.04 1722.51 1113.08L1723.77 1113.35C1729.7 1114.64 1733.04 1115.98 1738.69 1118.21L1738.05 1118.09C1747.25 1121.78 1753.13 1122.18 1758.48 1130.55L1766.72 1132.27L1767.92 1134.13L1766.65 1136.07L1768.85 1137.74L1772.34 1135.67C1778.02 1137.79 1779.48 1144.59 1782.91 1146.57C1795.2 1153.65 1804.31 1162.62 1814.8 1172.12C1815.19 1174.03 1815.19 1174.05 1815.08 1176C1817.49 1177.63 1818.93 1177.48 1821.83 1177.75C1825.78 1182 1823.77 1183.84 1824.66 1184.79C1829.55 1190.01 1841.16 1196.59 1837.29 1206.18C1832.62 1202.03 1823.18 1190.68 1818.13 1185.36C1801.48 1167.78 1783.36 1151.12 1762.83 1138.01C1741.77 1124.56 1710.67 1110.4 1685.97 1106.34C1668.03 1103.96 1649.48 1107.3 1631.49 1108.03C1526.37 1112.31 1437.67 1054.1 1419.2 946.497C1394.8 948.14 1360.15 948.595 1336.34 942.408L1335.31 938.562C1332.32 935.941 1298.75 925.891 1291.57 922.415C1279.59 916.717 1269.03 908.892 1258.11 901.664C1257.35 901.165 1255.03 901.086 1254.47 899.629C1265.4 899.577 1256.82 897.345 1267.65 901.312C1272.83 897.739 1266.81 885.069 1270.6 878.036C1278.43 873.538 1278.89 882.189 1286.61 880.826L1288.69 877.337L1294.15 877.204C1313.11 888.919 1341.3 896.317 1364.01 899.999C1376.16 901.97 1406.81 902.482 1418.62 898.854C1422.26 890.268 1429.83 863.798 1432.87 856.728C1461.74 789.533 1520.02 746.888 1576.33 704.144L1683.16 623.906C1678.17 615.871 1676.68 609.083 1672.58 601.313C1655.97 569.798 1637.82 538.805 1622.64 506.557C1618.43 497.61 1601.44 475.341 1603.2 467.394C1609.83 465.36 1625.36 476.435 1631.41 478.766C1647.32 484.897 1749.8 533.664 1757.53 531.056C1759.98 526.928 1798.14 416.484 1799.43 409.111ZM1697.46 556.538C1709.19 569.798 1723.24 610.812 1734.59 626.846C1740.81 639.215 1736.35 641.407 1727.88 647.661C1659.66 698.019 1589.34 747.14 1525.89 803.455C1513.87 814.126 1466.97 868.895 1475.02 883.06C1483.51 884.625 1535.79 850.669 1547.11 843.204C1603.59 805.961 1656.92 754.139 1718.58 726.207C1730.68 720.725 1764.36 727.059 1776.52 732.797C1777.49 751.948 1789.69 792.519 1791.38 812.368C1792.39 813.701 1792.8 814.37 1793.98 815.514C1804.78 801.5 1827.76 746.402 1837.66 740.835C1845.06 741.61 1891.61 768.58 1901.86 774.247C1907.54 776.731 1914.86 781.741 1919.58 781.834C1914.67 765.066 1887.99 708.683 1887.81 698.107C1893.5 691.838 1961.12 671.956 1975.21 665.861L1976.45 665.318C1967.37 660.277 1892.46 633.613 1892.87 629.319C1894.14 615.801 1943.25 542.665 1940.83 533.613C1932.62 532.996 1866.56 584.001 1849.84 587.937C1840.33 584.295 1825.22 515.114 1816.68 501.522L1813.95 502.123L1812.73 504.087C1812.58 508.635 1808.68 517.526 1806.81 522.387C1799.5 541.375 1793.18 560.308 1787.36 579.795C1786.58 582.381 1782.79 590.585 1779.57 590.021C1767.26 587.478 1755.86 580.46 1744.27 575.7C1729.15 569.229 1713 561.424 1697.46 556.538Z"/><defs><linearGradient id="gradient_2" gradientUnits="userSpaceOnUse" x1="2080.1873" y1="661.83875" x2="1793.0183" y2="653.1098"><stop offset="0" stop-color="#A91EF2"/><stop offset="1" stop-color="#7566F3"/></linearGradient></defs><path fill="url(#gradient_2)" d="M1871.2 524.224L2005.74 436.713C2015.16 430.573 2060.95 397.02 2067.93 399.238C2068.49 403.222 2046.38 438.913 2042.45 445.951L1971.57 575.207C1969.47 579.127 1952.06 607.252 1956.82 609.361C1970.84 615.581 1986.21 620.961 2000.62 626.433C2028.73 637.045 2056.71 647.983 2084.56 659.243C2093.99 662.377 2100.18 664.396 2109.14 668.691C2095.62 674.537 2077.12 680.061 2062.73 684.051C2050.63 688.118 1947.93 721.186 1945.7 723.542C1946.05 731.518 1954.78 749.174 1958.19 757.625L1994.18 845.352C1997.16 852.598 2000.51 859.811 2002.92 867.248C2004.24 871.303 2010.43 878.634 2007.84 882.251C1998 882.254 1964.74 860.302 1953.53 853.574C1932.13 840.925 1910.56 828.582 1888.81 816.548C1882.05 812.734 1858.18 796.684 1852.23 800.267C1838.79 826.139 1825.09 851.871 1811.12 877.459C1807.94 883.361 1797.75 903.884 1794.88 907.532L1793.01 906.37L1792.55 903.068C1786.35 898.886 1785.56 893.547 1785.72 886.537C1785.8 882.8 1786.94 882.872 1789.67 880.643C1788.6 876.798 1788.17 873.742 1791.6 871.151L1791.14 870.027L1791.1 870.069C1791.69 871.697 1792.31 873.317 1792.95 874.929L1794.95 875.425C1798.33 872.806 1792.53 871.836 1795.09 864.809C1797.66 867.035 1796.78 866.991 1799.35 866.888C1800.65 865.07 1800.66 864.146 1801.31 861.926C1798.93 861.393 1798.4 861.541 1796.74 859.777C1797.1 852.442 1802.5 821.044 1799.26 816.725C1797.02 816.566 1796.03 816.583 1793.98 815.514C1804.78 801.5 1827.76 746.402 1837.66 740.835C1845.06 741.61 1891.61 768.58 1901.86 774.247C1907.54 776.731 1914.86 781.741 1919.58 781.834C1914.67 765.066 1887.99 708.683 1887.81 698.107C1893.5 691.838 1961.12 671.956 1975.21 665.861L1976.45 665.318C1967.37 660.277 1892.46 633.613 1892.87 629.319C1894.14 615.801 1943.25 542.665 1940.83 533.613C1932.62 532.996 1866.56 584.001 1849.84 587.937C1840.33 584.295 1825.22 515.114 1816.68 501.522L1813.95 502.123L1812.73 504.087C1810.15 498.651 1815.33 491.077 1819.61 488.833C1823.01 490.818 1820.13 491.789 1823.03 494.663L1825.99 493.14C1826.52 487.042 1817.43 490.079 1825.16 473.459L1827.09 473.461L1827.64 471.924C1827.01 468.166 1827.12 467.458 1825.07 464.405C1823.7 464.741 1824.25 464.577 1822.89 465.032L1821.93 465.36C1823.35 459.729 1824.8 451.693 1828.32 447.068C1829.26 445.829 1832.89 446.178 1834.52 446.235L1837.74 441.916C1843.98 448.488 1838.3 466.025 1851.77 465.15C1857.35 476.381 1865.8 509.537 1871.2 524.224Z"/><path fill="#A321F5" d="M2084.56 659.243C2093.99 662.377 2100.18 664.396 2109.14 668.691C2095.62 674.537 2077.12 680.061 2062.73 684.051C2066.07 671.83 2080.72 672.327 2084.56 659.243Z"/><path fill="#8E3DF3" d="M1901.86 774.247C1907.54 776.731 1914.86 781.741 1919.58 781.834C1919.04 783.177 1918.67 783.516 1917.85 784.724C1915.98 785.134 1914.11 785.493 1912.23 785.799C1907.45 786.535 1906.27 786.044 1902.39 783.225C1900.24 779.189 1901.06 779.711 1901.86 774.247Z"/><path fill="#A321F5" d="M2036.09 682.383C2038.8 682.408 2040.01 682.59 2042.71 683.005L2043.45 684.329L2041.86 687.293C2039.98 687.621 2038.16 687.837 2036.27 688.082L2035.21 687.04L2036.09 682.383Z"/><path fill="#6C76F4" d="M1799.43 409.111C1803.26 398.928 1810.82 370.353 1816.11 364.917L1818.41 364.219C1822.34 366.343 1822.92 370.529 1824.19 374.793L1835.75 414.507C1836.98 418.718 1839.9 427.096 1840.71 430.818C1839.14 430.696 1836.66 430.155 1835.04 429.859C1832.65 426.08 1830.54 425.318 1826.36 424.267C1824.15 418.826 1828.84 412.08 1825.75 407.558C1821.85 401.868 1822.17 379.251 1817.06 376.262C1813.08 379.707 1808.16 399.906 1807.11 405.716L1806.92 406.829C1803.97 409.059 1803.37 408.539 1799.43 409.111Z"/><path fill="#6C76F4" d="M1765.32 924.806L1768.21 926.444L1770.57 925.577C1773.93 921.823 1772.02 917.926 1775.72 917.271C1777.09 920.164 1778 921.867 1780.04 924.329C1779.7 928.463 1778.95 928.795 1781.55 932.166C1780.82 936.534 1776.8 945.525 1773.09 948.477C1764.89 949.205 1765.61 930.604 1765.32 924.806Z"/><path fill="#6C76F4" d="M1835.04 429.859C1836.66 430.155 1839.14 430.696 1840.71 430.818C1843.49 438.917 1850.46 457.761 1851.77 465.15C1838.3 466.025 1843.98 448.488 1837.74 441.916C1835.76 439.788 1835.37 437.837 1832.88 436.559C1832.04 438.427 1831.42 439.786 1830.45 441.605L1828.77 441.865C1825.04 439.364 1823.92 435.222 1826.51 431.495C1831.29 430.905 1831.1 433.197 1834.31 433.016L1835.04 429.859Z"/><path fill="#6C76F4" d="M1780.04 924.329C1782.31 920.243 1781.15 917.541 1783.75 911.156C1788.27 907.222 1788.14 906.406 1793.01 906.37L1794.88 907.532C1792.28 913.808 1785.93 927.204 1781.55 932.166C1778.95 928.795 1779.7 928.463 1780.04 924.329Z"/><path fill="#6C76F4" d="M1733.24 1083.72C1735.27 1085.92 1735.19 1085.83 1736.36 1088.6L1735.47 1090.17L1732.39 1090.54C1730.63 1090.52 1730.77 1090.39 1729.03 1089.85C1729.2 1087.2 1731.06 1086.1 1733.24 1083.72Z"/><path fill="#6C76F4" d="M1743.28 1054.4C1746.57 1055.01 1746.02 1054.37 1747.71 1056.39L1746.26 1062.14C1741.32 1059.28 1742.01 1059.47 1743.28 1054.4Z"/><defs><linearGradient id="gradient_3" gradientUnits="userSpaceOnUse" x1="1560.1549" y1="696.52222" x2="319.87653" y2="658.08881"><stop offset="0" stop-color="#2ABBF3"/><stop offset="1" stop-color="#00FFFE"/></linearGradient></defs><path fill="url(#gradient_3)" d="M1525.53 260.269C1537.17 260.962 1551.63 252.369 1559.21 253.561L1558.7 253.79C1563.55 253.837 1571.4 255.532 1569.58 260.453C1565.83 270.587 1573.2 271.784 1574.77 279.582C1575.45 282.957 1570.06 283.416 1568.49 288.818L1571.06 288.283C1571.59 290.165 1571.35 290.282 1570.86 292.234C1556.54 296.341 1534.05 305.122 1520.15 310.897C1422.2 351.122 1336.93 417.047 1273.33 501.712C1212.57 582.315 1180.39 664.791 1209.41 765.754C1222.94 812.088 1253.12 851.784 1294.15 877.204L1288.69 877.337L1286.61 880.826C1278.89 882.189 1278.43 873.538 1270.6 878.036C1266.81 885.069 1272.83 897.739 1267.65 901.312C1256.82 897.345 1265.4 899.577 1254.47 899.629C1255.03 901.086 1257.35 901.165 1258.11 901.664C1269.03 908.892 1279.59 916.717 1291.57 922.415C1298.75 925.891 1332.32 935.941 1335.31 938.562L1336.34 942.408C1317.37 939.257 1288.22 927.486 1271.59 917.429C1210.29 881.11 1169.48 819.081 1156.95 749.227C1153.06 727.531 1152.2 699.722 1153.23 677.682C1153.44 673.12 1154.88 666.791 1153.78 662.509L1151.53 662.759C1149.32 664.098 1131.25 686.824 1128.02 690.716C1114.17 707.388 1099.08 732.231 1090.39 752.202C1070.83 796.026 1066.16 836.244 1056.61 883.222C1041.79 956.09 1039.19 1043.64 1004.25 1110.14C995.327 1127.11 969.067 1130.34 954.504 1118.25C938.809 1105.22 932.168 1083.13 926.273 1063.82C907.838 988.71 900.154 909.414 889.51 832.84L837.788 477.003C836.575 468.729 833.783 443.26 827.282 438.393C815.14 440.015 794.679 594.997 792.241 614.355C785.983 664.051 778.309 713.89 771.292 763.539C762.922 822.76 756.888 882.564 744.172 941.087C739.777 961.314 732.876 987.986 720.52 1004.64C700.396 1029.59 670.213 1018.52 656.757 993.434C645.054 971.62 641.278 950.474 636.065 926.875C628.952 894.573 622.814 862.063 617.66 829.391C614.894 812.025 613.964 796.73 609.616 779.225C604.003 756.628 604.092 732.43 595.459 710.175C593.373 704.796 594.135 696.88 589.601 692.934C586.946 693.861 584.978 696.419 584.238 699.021C576.175 727.378 569.293 756.232 560.793 784.473C559.319 789.685 559.077 795.488 557.605 800.646C549.176 830.177 536.442 858.263 513.391 879.265C476.557 912.825 425.96 904.811 380.365 905.684C360.073 905.49 339.524 906.35 319.259 905.72C315.241 905.176 307.11 905.276 307.501 899.275C308.146 889.387 306.238 870.552 308.095 861.568C309.868 859.398 313.922 858.246 316.594 858.261C348.351 858.722 382.11 858.77 413.691 858.548C437.026 858.384 473.322 860.445 489.12 839.206C528.055 786.863 520.272 708.158 557.027 653.904C562.791 645.397 574.27 636.183 585.006 635.545C613.613 634.518 626.652 655.867 634.846 680.434C643.201 705.487 647.61 730.936 651.85 756.883C657.379 782.151 681.409 945.293 691.895 953.731C701.413 947.977 714.104 837.895 716.379 822.055L746.276 612.76C748.223 599.038 748.658 585.593 751.268 571.871C762.781 511.339 765.661 443.176 797.518 389.076C799.092 386.402 804.862 381.136 807.812 379.682C855.264 360.226 871.285 419.447 879.431 453.476C897.205 524.267 903.686 596.592 913.171 668.464L942.434 880.144C948.917 929.816 955.095 979.347 965.384 1028.36C967.151 1036.77 968.722 1058.38 974.613 1063.32C979.396 1060.62 987.044 1026.89 988.26 1020.4C1012.59 890.216 1011.53 745.346 1108.07 643.188C1156 592.465 1192.95 529.841 1235.19 475.387C1298.4 393.888 1381.77 324.742 1475.3 281.146C1490.23 274.189 1509.71 264.7 1525.53 260.269Z"/></svg>